<mxfile host="app.diagrams.net" modified="2023-05-21T11:52:48.331Z" agent="Mozilla/5.0 (Windows NT 10.0; Win64; x64) AppleWebKit/537.36 (KHTML, like Gecko) Chrome/113.0.0.0 Safari/537.36" etag="I-Zu92tYYG5_BAeCf36U" version="21.3.2" type="device">
  <diagram name="Page-1" id="0783ab3e-0a74-02c8-0abd-f7b4e66b4bec">
    <mxGraphModel dx="1050" dy="541" grid="1" gridSize="10" guides="1" tooltips="1" connect="1" arrows="1" fold="1" page="1" pageScale="1" pageWidth="600" pageHeight="650" background="none" math="0" shadow="0">
      <root>
        <mxCell id="0" />
        <mxCell id="1" parent="0" />
        <mxCell id="wbuntGqTaFYtr3KhO8sW-3" value="" style="ellipse;html=1;shape=startState;fillColor=#000000;strokeColor=#ff0000;" parent="1" vertex="1">
          <mxGeometry x="260" y="40" width="30" height="30" as="geometry" />
        </mxCell>
        <mxCell id="wbuntGqTaFYtr3KhO8sW-4" value="" style="edgeStyle=orthogonalEdgeStyle;html=1;verticalAlign=bottom;endArrow=open;endSize=8;strokeColor=#ff0000;rounded=0;" parent="1" source="wbuntGqTaFYtr3KhO8sW-3" edge="1">
          <mxGeometry relative="1" as="geometry">
            <mxPoint x="275" y="100" as="targetPoint" />
          </mxGeometry>
        </mxCell>
        <mxCell id="wbuntGqTaFYtr3KhO8sW-5" value="Spieler/-in empfängt Zug" style="ellipse;whiteSpace=wrap;html=1;" parent="1" vertex="1">
          <mxGeometry x="205" y="100" width="140" height="70" as="geometry" />
        </mxCell>
        <mxCell id="wbuntGqTaFYtr3KhO8sW-6" value="" style="html=1;whiteSpace=wrap;aspect=fixed;shape=isoRectangle;" parent="1" vertex="1">
          <mxGeometry x="235" y="198" width="80" height="48" as="geometry" />
        </mxCell>
        <mxCell id="wbuntGqTaFYtr3KhO8sW-7" value="" style="endArrow=open;endFill=1;endSize=12;html=1;rounded=0;" parent="1" source="wbuntGqTaFYtr3KhO8sW-5" target="wbuntGqTaFYtr3KhO8sW-6" edge="1">
          <mxGeometry width="160" relative="1" as="geometry">
            <mxPoint x="190" y="250" as="sourcePoint" />
            <mxPoint x="350" y="250" as="targetPoint" />
          </mxGeometry>
        </mxCell>
        <mxCell id="wbuntGqTaFYtr3KhO8sW-11" value="" style="endArrow=open;endFill=1;endSize=12;html=1;rounded=0;" parent="1" source="wbuntGqTaFYtr3KhO8sW-6" target="wbuntGqTaFYtr3KhO8sW-42" edge="1">
          <mxGeometry width="160" relative="1" as="geometry">
            <mxPoint x="440" y="330" as="sourcePoint" />
            <mxPoint x="450.02098181623114" y="224.14311406305592" as="targetPoint" />
          </mxGeometry>
        </mxCell>
        <mxCell id="wbuntGqTaFYtr3KhO8sW-12" value="Ist Bauernumwandlung" style="text;strokeColor=none;fillColor=none;align=left;verticalAlign=top;spacingLeft=4;spacingRight=4;overflow=hidden;rotatable=0;points=[[0,0.5],[1,0.5]];portConstraint=eastwest;whiteSpace=wrap;html=1;" parent="1" vertex="1">
          <mxGeometry x="315" y="190" width="160" height="26" as="geometry" />
        </mxCell>
        <mxCell id="wbuntGqTaFYtr3KhO8sW-14" value="" style="endArrow=open;endFill=1;endSize=12;html=1;rounded=0;" parent="1" source="wbuntGqTaFYtr3KhO8sW-6" target="wbuntGqTaFYtr3KhO8sW-22" edge="1">
          <mxGeometry width="160" relative="1" as="geometry">
            <mxPoint x="190" y="250" as="sourcePoint" />
            <mxPoint x="275" y="310" as="targetPoint" />
          </mxGeometry>
        </mxCell>
        <mxCell id="wbuntGqTaFYtr3KhO8sW-22" value="Mache Zug in chessground und in chess.js" style="ellipse;whiteSpace=wrap;html=1;" parent="1" vertex="1">
          <mxGeometry x="205" y="270" width="140" height="70" as="geometry" />
        </mxCell>
        <mxCell id="wbuntGqTaFYtr3KhO8sW-25" value="" style="html=1;whiteSpace=wrap;aspect=fixed;shape=isoRectangle;" parent="1" vertex="1">
          <mxGeometry x="235" y="370" width="80" height="48" as="geometry" />
        </mxCell>
        <mxCell id="wbuntGqTaFYtr3KhO8sW-29" value="" style="endArrow=open;endFill=1;endSize=12;html=1;rounded=0;" parent="1" source="wbuntGqTaFYtr3KhO8sW-22" target="wbuntGqTaFYtr3KhO8sW-25" edge="1">
          <mxGeometry width="160" relative="1" as="geometry">
            <mxPoint x="190" y="340" as="sourcePoint" />
            <mxPoint x="350" y="340" as="targetPoint" />
          </mxGeometry>
        </mxCell>
        <mxCell id="wbuntGqTaFYtr3KhO8sW-31" value="" style="endArrow=open;endFill=1;endSize=12;html=1;rounded=0;" parent="1" source="wbuntGqTaFYtr3KhO8sW-25" target="wbuntGqTaFYtr3KhO8sW-33" edge="1">
          <mxGeometry width="160" relative="1" as="geometry">
            <mxPoint x="200" y="460" as="sourcePoint" />
            <mxPoint x="130" y="394" as="targetPoint" />
          </mxGeometry>
        </mxCell>
        <mxCell id="wbuntGqTaFYtr3KhO8sW-32" value="Ist En Passant" style="text;strokeColor=none;fillColor=none;align=left;verticalAlign=top;spacingLeft=4;spacingRight=4;overflow=hidden;rotatable=0;points=[[0,0.5],[1,0.5]];portConstraint=eastwest;whiteSpace=wrap;html=1;" parent="1" vertex="1">
          <mxGeometry x="150" y="359" width="100" height="26" as="geometry" />
        </mxCell>
        <mxCell id="wbuntGqTaFYtr3KhO8sW-33" value="Lösche geschlagenen Bauern in chessground" style="ellipse;whiteSpace=wrap;html=1;" parent="1" vertex="1">
          <mxGeometry y="359" width="140" height="70" as="geometry" />
        </mxCell>
        <mxCell id="wbuntGqTaFYtr3KhO8sW-34" value="" style="endArrow=open;endFill=1;endSize=12;html=1;rounded=0;" parent="1" source="wbuntGqTaFYtr3KhO8sW-25" target="LkfD6C9MRU1kPl8pwHJ5-6" edge="1">
          <mxGeometry width="160" relative="1" as="geometry">
            <mxPoint x="200" y="570" as="sourcePoint" />
            <mxPoint x="275" y="490" as="targetPoint" />
          </mxGeometry>
        </mxCell>
        <mxCell id="wbuntGqTaFYtr3KhO8sW-36" value="Kein En Passant" style="text;strokeColor=none;fillColor=none;align=left;verticalAlign=top;spacingLeft=4;spacingRight=4;overflow=hidden;rotatable=0;points=[[0,0.5],[1,0.5]];portConstraint=eastwest;whiteSpace=wrap;html=1;" parent="1" vertex="1">
          <mxGeometry x="280" y="418" width="100" height="26" as="geometry" />
        </mxCell>
        <mxCell id="wbuntGqTaFYtr3KhO8sW-37" value="" style="ellipse;html=1;shape=endState;fillColor=#000000;strokeColor=#ff0000;" parent="1" vertex="1">
          <mxGeometry x="260" y="560" width="30" height="30" as="geometry" />
        </mxCell>
        <mxCell id="wbuntGqTaFYtr3KhO8sW-38" value="" style="endArrow=open;endFill=1;endSize=12;html=1;rounded=0;" parent="1" source="wbuntGqTaFYtr3KhO8sW-33" target="LkfD6C9MRU1kPl8pwHJ5-6" edge="1">
          <mxGeometry width="160" relative="1" as="geometry">
            <mxPoint x="200" y="570" as="sourcePoint" />
            <mxPoint x="360" y="570" as="targetPoint" />
            <Array as="points">
              <mxPoint x="70" y="495" />
            </Array>
          </mxGeometry>
        </mxCell>
        <mxCell id="wbuntGqTaFYtr3KhO8sW-42" value="Mache Zug in chess.js und chessground" style="ellipse;whiteSpace=wrap;html=1;" parent="1" vertex="1">
          <mxGeometry x="450" y="187" width="140" height="70" as="geometry" />
        </mxCell>
        <mxCell id="wbuntGqTaFYtr3KhO8sW-43" value="" style="endArrow=open;endFill=1;endSize=12;html=1;rounded=0;" parent="1" source="wbuntGqTaFYtr3KhO8sW-42" target="LkfD6C9MRU1kPl8pwHJ5-1" edge="1">
          <mxGeometry width="160" relative="1" as="geometry">
            <mxPoint x="180" y="363" as="sourcePoint" />
            <mxPoint x="520" y="493" as="targetPoint" />
          </mxGeometry>
        </mxCell>
        <mxCell id="wbuntGqTaFYtr3KhO8sW-45" value="" style="endArrow=open;endFill=1;endSize=12;html=1;rounded=0;" parent="1" source="LkfD6C9MRU1kPl8pwHJ5-6" target="wbuntGqTaFYtr3KhO8sW-37" edge="1">
          <mxGeometry width="160" relative="1" as="geometry">
            <mxPoint x="450.01058361058176" y="507.39139637922244" as="sourcePoint" />
            <mxPoint x="360" y="340" as="targetPoint" />
          </mxGeometry>
        </mxCell>
        <mxCell id="LkfD6C9MRU1kPl8pwHJ5-1" value="Ersetze Bauern mit umgewandelter Figur in chessground" style="ellipse;whiteSpace=wrap;html=1;" parent="1" vertex="1">
          <mxGeometry x="450" y="290" width="140" height="70" as="geometry" />
        </mxCell>
        <mxCell id="LkfD6C9MRU1kPl8pwHJ5-2" value="Aktualisiere mögliche Züge" style="ellipse;whiteSpace=wrap;html=1;" parent="1" vertex="1">
          <mxGeometry x="450" y="416" width="140" height="70" as="geometry" />
        </mxCell>
        <mxCell id="LkfD6C9MRU1kPl8pwHJ5-4" value="" style="endArrow=open;endFill=1;endSize=12;html=1;rounded=0;" parent="1" source="LkfD6C9MRU1kPl8pwHJ5-1" target="LkfD6C9MRU1kPl8pwHJ5-2" edge="1">
          <mxGeometry width="160" relative="1" as="geometry">
            <mxPoint x="530" y="267" as="sourcePoint" />
            <mxPoint x="530" y="300" as="targetPoint" />
          </mxGeometry>
        </mxCell>
        <mxCell id="LkfD6C9MRU1kPl8pwHJ5-6" value="Aktualisiere mögliche Züge" style="ellipse;whiteSpace=wrap;html=1;" parent="1" vertex="1">
          <mxGeometry x="205" y="460" width="140" height="70" as="geometry" />
        </mxCell>
        <mxCell id="LkfD6C9MRU1kPl8pwHJ5-8" value="" style="endArrow=open;endFill=1;endSize=12;html=1;rounded=0;" parent="1" source="LkfD6C9MRU1kPl8pwHJ5-2" target="ZeUyT3zOJRw7scOufAu5-1" edge="1">
          <mxGeometry width="160" relative="1" as="geometry">
            <mxPoint x="355" y="525" as="sourcePoint" />
            <mxPoint x="520" y="530" as="targetPoint" />
            <Array as="points">
              <mxPoint x="520" y="515" />
            </Array>
          </mxGeometry>
        </mxCell>
        <mxCell id="ZeUyT3zOJRw7scOufAu5-1" value="" style="ellipse;html=1;shape=endState;fillColor=#000000;strokeColor=#ff0000;" parent="1" vertex="1">
          <mxGeometry x="505" y="530" width="30" height="30" as="geometry" />
        </mxCell>
      </root>
    </mxGraphModel>
  </diagram>
</mxfile>
